# xmcd
#
# Track frame offsets:
#	180
#	10739
#	18564
#	39397
#	49977
#	63861
#	83584
#	95965
#	115021
#	126270
#	155761
#	174343
#	192519
#	201371
#
# Disc length: 2859 seconds
#
# Revision: 0
# Processed by: cddbd v1.5.2PL0 Copyright (c) Steve Scherf et al.
# Submitted via: EasyCDDAExtractor 10.2.0.1
#
DISCID=bc0b290e
DTITLE=Various Artist - Capitol-Christmas  Comp. Vol. 18
DYEAR=1900
DGENRE=Gospel
TTITLE0=3 For 1 - Glory To God In The Highest
TTITLE1=3 For 1 - We Wish You A Merry Christmas
TTITLE2=Kevin Spencer Family - O Holy Night
TTITLE3=Bobby All - We Three Kings
TTITLE4=Chandlers - What Christmas Means To Me
TTITLE5=Heartland Boys - Have Yourself A Merry Little Christmas
TTITLE6=Kevin Spencer Family - Going Home For Christmas
TTITLE7=Darrell Luster - The Christmas Medley
TTITLE8=Goldens - The Friendly Beasts
TTITLE9=Prime Example - The Great Church Robbery
TTITLE10=Joyce Croft - Christmas Instrumental
TTITLE11=New Beginning - Wise Men Still Do
TTITLE12=Bobby All - While Sheperds Watch Their Flocks
TTITLE13=Won By One - Winter Wonderland
EXTD=
EXTT0=
EXTT1=
EXTT2=
EXTT3=
EXTT4=
EXTT5=
EXTT6=
EXTT7=
EXTT8=
EXTT9=
EXTT10=
EXTT11=
EXTT12=
EXTT13=
PLAYORDER=
